# xmcd CD database file
#
# Track frame offsets:
#	150
#	17325
#	34237
#	57000
#	77062
#	91800
#	110625
#	126825
#	145500
#	162337
#	183300
#	198750
#	218737
#	234900
#	254225
#	276487
#
# Disc length: 3898 seconds
#
# Revision: 0
# Processed by: cddbd v1.5.1PL0 Copyright (c) Steve Scherf et al.
# Submitted via: CDex 1.51
#
DISCID=d80f3810
DTITLE=テレサ・テン - テレサ・テン　オリジナル全曲集
DYEAR=1900
DGENRE=Vocal
TTITLE0=つぐない
TTITLE1=空港
TTITLE2=香港
TTITLE3=別れの予感
TTITLE4=夜のフェリーボート
TTITLE5=悲しい自由
TTITLE6=あなたと生きる
TTITLE7=時の流れに身をまかせ
TTITLE8=愛人
TTITLE9=恋人たちの神話
TTITLE10=スキャンダル
TTITLE11=涙の条件
TTITLE12=ふるさとはどこですか
TTITLE13=悲しみと踊らせて
TTITLE14=あなたと共に生きてゆく
TTITLE15=夜来香
EXTD=
EXTT0=
EXTT1=
EXTT2=
EXTT3=
EXTT4=
EXTT5=
EXTT6=
EXTT7=
EXTT8=
EXTT9=
EXTT10=
EXTT11=
EXTT12=
EXTT13=
EXTT14=
EXTT15=
PLAYORDER=
